HIERARCHY
ROOT root
{
	OFFSET	0	13.1	24.9
	CHANNELS 6  Xposition Yposition Zposition Xrotation Yrotation Zrotation
	JOINT spine_1
	{
		OFFSET	0	9.99999	0
		CHANNELS 3  Xrotation Yrotation Zrotation
		JOINT spine_2
		{
			OFFSET	0	112	-10
			CHANNELS 3  Xrotation Yrotation Zrotation
			JOINT spine_3
			{
				OFFSET	0	206.5	19.3
				CHANNELS 3  Xrotation Yrotation Zrotation
				JOINT spine_4
				{
					OFFSET	0	110.4	14.6
					CHANNELS 3  Xrotation Yrotation Zrotation
					JOINT neck_1
					{
						OFFSET	0	71.8	-50.3
						CHANNELS 3  Xrotation Yrotation Zrotation
						JOINT neck_2
						{
							OFFSET	0	86.2	-25.8
							CHANNELS 3  Xrotation Yrotation Zrotation
							JOINT head_ee
							{
								OFFSET	0	179.8	-8.7
								CHANNELS 3  Xrotation Yrotation Zrotation
								End Site
								{
									OFFSET	1	0	0
								}
							}
						}
					}
					JOINT left_clavicle
					{
						OFFSET	-43.2	22.4	-70.8
						CHANNELS 3  Xrotation Yrotation Zrotation
						JOINT left_shoulder
						{
							OFFSET	-93.9	-5.79999	48.7
							CHANNELS 3  Xrotation Yrotation Zrotation
							JOINT left_elbow
							{
								OFFSET	-291.4	-30.8	15.2
								CHANNELS 3  Xrotation Yrotation Zrotation
								JOINT left_lowarm_twist
								{
									OFFSET	-110.7	-3.89999	13.6
									CHANNELS 3  Xrotation Yrotation Zrotation
									JOINT left_hand
									{
										OFFSET	-110.7	-3.89999	13.6
										CHANNELS 3  Xrotation Yrotation Zrotation
										JOINT left_ee
										{
											OFFSET	-80.8	-5.10001	12.1
											CHANNELS 3  Xrotation Yrotation Zrotation
											End Site
											{
												OFFSET	1	0	0
											}
										}
									}
								}
							}
						}
					}
					JOINT right_clavicle
					{
						OFFSET	43.2	22.4	-70.8
						CHANNELS 3  Xrotation Yrotation Zrotation
						JOINT right_shoulder
						{
							OFFSET	93.9	-5.79999	48.7
							CHANNELS 3  Xrotation Yrotation Zrotation
							JOINT right_elbow
							{
								OFFSET	291.4	-30.8	15.2
								CHANNELS 3  Xrotation Yrotation Zrotation
								JOINT right_lowarm_twist
								{
									OFFSET	110.7	-3.89999	13.6
									CHANNELS 3  Xrotation Yrotation Zrotation
									JOINT right_hand
									{
										OFFSET	110.7	-3.89999	13.6
										CHANNELS 3  Xrotation Yrotation Zrotation
										JOINT right_ee
										{
											OFFSET	80.8	-5.10001	12.1
											CHANNELS 3  Xrotation Yrotation Zrotation
											End Site
											{
												OFFSET	1	0	0
											}
										}
									}
								}
							}
						}
					}
				}
			}
		}
	}
	JOINT left_hip
	{
		OFFSET	-82.8	-127.5	0.300001
		CHANNELS 3  Xrotation Yrotation Zrotation
		JOINT left_knee
		{
			OFFSET	-28.2	-396.7	2.2
			CHANNELS 3  Xrotation Yrotation Zrotation
			JOINT left_ankle
			{
				OFFSET	-11.7	-411.3	35.4
				CHANNELS 3  Xrotation Yrotation Zrotation
				JOINT left_toes
				{
					OFFSET	0	-60	-88.6
					CHANNELS 3  Xrotation Yrotation Zrotation
					JOINT left_foot_ee
					{
						OFFSET	-22.5	-16.5	-42.2
						CHANNELS 3  Xrotation Yrotation Zrotation
						End Site
						{
							OFFSET	1	0	0
						}
					}
				}
			}
		}
	}
	JOINT right_hip
	{
		OFFSET	82.8	-127.5	0.300001
		CHANNELS 3  Xrotation Yrotation Zrotation
		JOINT right_knee
		{
			OFFSET	28.2	-396.7	2.2
			CHANNELS 3  Xrotation Yrotation Zrotation
			JOINT right_ankle
			{
				OFFSET	11.7	-411.3	35.4
				CHANNELS 3  Xrotation Yrotation Zrotation
				JOINT right_toes
				{
					OFFSET	0	-60	-88.6
					CHANNELS 3  Xrotation Yrotation Zrotation
					JOINT right_foot_ee
					{
						OFFSET	22.5	-16.5	-42.2
						CHANNELS 3  Xrotation Yrotation Zrotation
						End Site
						{
							OFFSET	1	0	0
						}
					}
				}
			}
		}
	}
}
MOTION
Frames: 8
Frame Time: 0.02
3177.53 688.969 -1521.36 -17.5746 64.1205 16.9144 2.63658 0.910392 3.39091 2.64271 0.692906 3.44189 2.68334 0.119018 3.50884 2.66679 0.671349 3.44615 -1.74786 13.3863 -8.66307 -0.773908 30.9597 -7.68833 -0.0 0.0 -0.0 -2.99426 23.2646 -1.4267 -39.8256 -18.6557 69.8273 0.676874 -18.5366 0.110459 -37.7117 -2.71115 3.89151 0.954248 8.84252 9.87471 -0.0 0.0 -0.0 13.9977 27.5553 -27.796 29.6075 21.9551 -64.2951 2.88976 55.0525 -1.50623 8.97706 -0.228731 1.12275 1.84386 18.6081 -4.36433 0.0 0.0 0.0 28.2918 -4.35106 -12.7608 2.35648 -0.104188 -0.346556 2.14482 24.9516 -0.325828 -40.1475 0.0 0.0 -0.0 0.0 -0.0 -9.28256 1.72815 6.49913 -5.67016 -0.191581 -0.84876 39.1311 14.6384 5.07681 -16.2479 0.0 0.0 0.0 0.0 0.0 
3158.84 687.468 -1515.92 -18.2273 64.388 17.3922 2.71852 0.867204 3.28823 2.7243 0.656328 3.33667 2.76143 0.104768 3.39892 2.74588 0.639948 3.33985 -0.499417 13.1755 -8.59784 0.598098 30.4676 -8.02247 -0.0 0.0 -0.0 -3.01087 22.8501 -1.53192 -38.9736 -18.8818 69.591 0.684918 -18.7415 0.11303 -38.1236 -2.75386 3.92267 0.899683 9.83525 9.89414 -0.0 0.0 -0.0 13.6949 27.8806 -27.0475 28.6556 21.5879 -64.182 2.96833 55.7701 -1.57091 8.81336 -0.226144 1.102 1.83585 18.0668 -4.55897 0.0 0.0 0.0 28.4056 -5.93149 -11.8981 0.626912 -0.0263222 -0.092602 -0.39929 24.3865 0.0608315 -40.2075 0.0 0.0 -0.0 0.0 -0.0 -9.93528 2.16274 7.34286 -6.63988 -0.215887 -0.99559 39.1179 12.7972 5.02091 -16.4765 0.0 0.0 0.0 0.0 0.0 
3129.86 691.324 -1508.95 -18.7298 64.2227 18.1371 2.82602 0.826118 3.13183 2.83126 0.625261 3.17799 2.86478 0.105731 3.23712 2.85069 0.615387 3.17991 2.47783 12.4953 -7.70551 3.69898 28.3335 -7.90008 -0.0 0.0 -0.0 -2.51827 22.6564 -0.88152 -38.0762 -18.947 68.9152 0.66103 -18.1314 0.105475 -37.582 -2.69775 3.88164 1.25207 12.1398 13.0387 -0.0 0.0 -0.0 13.6645 27.361 -27.0467 27.6311 21.1008 -64.2636 2.86854 54.8541 -1.48886 8.72744 -0.224762 1.09111 1.79175 17.5891 -4.48255 0.0 0.0 0.0 28.0575 -7.13769 -11.534 -2.03119 0.0782874 0.301871 0.50849 21.1743 -0.0762104 -40.1409 0.0 0.0 -0.0 0.0 -0.0 -10.4449 2.77907 7.5928 -5.10148 -0.176171 -0.762848 38.4214 13.3768 4.97451 -16.5853 0.0 0.0 0.0 0.0 0.0 
3108.33 694.824 -1504.8 -20.5569 64.3068 20.4743 2.93443 0.679514 2.98682 2.93926 0.488168 3.02395 2.96375 0.000311321 3.06307 2.95099 0.483837 3.02465 2.47357 12.712 -8.24773 3.79916 29.1611 -8.52435 -0.0 0.0 -0.0 -2.37543 21.9356 -0.811319 -35.8007 -19.3113 68.0059 0.720866 -19.6514 0.12485 -38.491 -2.79213 3.95019 0.813845 10.9613 9.76107 -0.0 0.0 -0.0 13.1395 27.8514 -25.7677 26.0917 20.8318 -64.2227 2.9047 55.191 -1.51849 8.51586 -0.221289 1.06431 1.89137 17.2111 -5.32139 0.0 0.0 0.0 27.4993 -7.39417 -11.3562 -0.710288 0.0285948 0.105251 -3.31916 23.6518 0.506841 -40.0052 0.0 0.0 -0.0 0.0 -0.0 -9.88926 2.80497 8.09434 -7.8509 -0.242743 -1.17949 38.4701 10.6728 4.90743 -16.7139 0.0 0.0 0.0 0.0 0.0 
3081.75 710.69 -1491.97 -20.6716 65.543 19.989 2.88219 0.232164 3.07274 2.88745 0.0362621 3.08128 2.88787 -0.459642 3.04705 2.87492 0.0271139 3.08137 4.87045 12.6488 -8.45388 6.46282 29.0077 -9.44324 -0.0 0.0 -0.0 -1.64265 21.7533 0.197432 -33.7853 -20.0877 67.5434 0.649062 -17.8241 0.101781 -39.7393 -2.92348 4.04187 0.683148 12.9089 9.65061 -0.0 0.0 -0.0 13.1351 27.1551 -25.8477 22.3806 20.0966 -64.6327 2.82123 54.4047 -1.45027 6.54126 -0.184117 0.814823 1.88529 16.4789 -5.61448 0.0 0.0 0.0 26.4371 -10.2207 -8.38201 -6.0205 0.200649 0.90176 2.73683 21.7861 -0.409041 -37.4835 0.0 0.0 -0.0 0.0 -0.0 -5.79362 8.4416 8.16831 -19.8759 -0.297095 -3.02038 39.2451 8.65431 4.93128 -16.9289 0.0 0.0 0.0 0.0 0.0 
3058.93 716.931 -1483.34 -21.1575 64.4895 19.9343 2.98411 0.497715 2.84729 2.98857 0.315603 2.87316 3.0031 -0.144261 2.88683 2.9916 0.313278 2.87342 4.59536 15.116 -6.86916 6.3157 31.9345 -7.50706 -0.0 0.0 -0.0 -0.998726 20.8047 0.978817 -32.1497 -20.2823 66.743 0.633708 -17.4282 0.0971318 -42.4127 -3.21133 4.22851 0.247403 18.1379 8.87279 -0.0 0.0 -0.0 13.2057 26.2778 -26.1197 19.2212 20.9993 -64.0936 2.88805 55.0365 -1.50482 3.68845 -0.115276 0.45694 2.0004 15.2896 -6.92986 0.0 0.0 0.0 24.8676 -11.245 -6.48811 -6.37062 0.209387 0.954779 10.4945 24.4193 -1.5535 -35.6534 0.0 0.0 -0.0 0.0 -0.0 -5.44285 13.6807 9.218 -23.5256 -0.237142 -3.57711 35.2091 1.56715 4.45273 -16.3138 0.0 0.0 0.0 0.0 0.0 
3038.78 723.764 -1477.37 -18.9548 64.611 17.1948 2.87898 0.585119 2.75171 2.8831 0.408905 2.78333 2.90193 -0.0427358 2.81286 2.89112 0.401864 2.78436 3.06589 15.9546 -5.66094 4.56348 32.6094 -5.6353 -0.0 0.0 -0.0 -0.450408 19.9865 1.66947 -29.8586 -20.8323 65.6765 0.6524 -17.9099 0.102805 -43.206 -3.29839 4.28129 0.113055 20.9402 9.10182 -0.0 0.0 -0.0 13.2878 26.3734 -26.2982 16.3067 21.1898 -63.7884 2.77643 53.9698 -1.41395 0.525398 -0.0182154 0.0646286 1.77594 11.2542 -7.21214 0.0 0.0 0.0 22.0405 -11.2925 -4.55814 -5.46455 0.186108 0.817681 15.3944 26.4049 -2.26614 -32.3128 0.0 0.0 -0.0 0.0 -0.0 -5.03718 20.697 8.87046 -28.7568 -0.0896713 -4.36611 34.7457 -5.88471 4.37371 -18.3617 0.0 0.0 0.0 0.0 0.0 
3022.61 728.288 -1476.53 -17.9596 64.6361 15.6502 2.81647 0.553437 2.90128 2.82108 0.367781 2.93058 2.83878 -0.110265 2.95149 2.82681 0.357048 2.93191 2.31066 15.9684 -3.45066 3.44284 30.9264 -2.86121 -0.0 0.0 -0.0 -0.0617573 19.3891 2.17188 -28.845 -22.1026 63.5607 0.661072 -18.1324 0.105488 -44.1995 -3.40844 4.3457 0.197849 19.7249 9.16125 -0.0 0.0 -0.0 12.9512 26.6198 -25.4902 14.1125 21.3534 -64.817 2.61493 52.3235 -1.28471 -0.920375 0.0333367 -0.112808 2.13618 10.4461 -10.0246 0.0 0.0 0.0 19.8614 -12.1573 -2.93829 -4.88215 0.170001 0.729754 17.5017 27.8076 -2.57874 -31.391 0.0 0.0 -0.0 0.0 -0.0 -4.81896 25.7654 8.08744 -33.1347 0.0887097 -5.01409 35.3088 -8.7892 4.43541 -20.093 0.0 0.0 0.0 0.0 0.0 
